<?xml version="1.0" encoding="utf-8"?>
<!-- Generator: Adobe Illustrator 16.2.1, SVG Export Plug-In . SVG Version: 6.00 Build 0)  -->
<!DOCTYPE svg PUBLIC "-//W3C//DTD SVG 1.1//EN" "http://www.w3.org/Graphics/SVG/1.1/DTD/svg11.dtd">
<svg version="1.1" id="Layer_1" xmlns="http://www.w3.org/2000/svg" xmlns:xlink="http://www.w3.org/1999/xlink" x="0px" y="0px"
	 width="800px" height="800px" viewBox="0 0 800 800" enable-background="new 0 0 800 800" xml:space="preserve" fill="#0c0c0d">
<g>
	<path d="M160.112,295.58c0.3,4.379,2.112,8.303,5.433,11.773c3.318,3.474,8.299,5.207,14.943,5.207
		c4.98,0,8.677-1.093,11.093-3.283c2.414-2.187,3.623-4.789,3.623-7.81c0-2.564-0.906-4.791-2.717-6.678
		c-1.812-1.886-4.907-3.283-9.281-4.188l-14.717-3.397c-10.867-2.412-18.79-6.601-23.771-12.564
		c-4.981-5.96-7.471-12.866-7.471-20.715c0-4.981,1.055-9.696,3.17-14.15c2.112-4.451,5.017-8.299,8.715-11.547
		c3.698-3.243,8.074-5.847,13.132-7.81c5.056-1.959,10.602-2.943,16.64-2.943c7.846,0,14.49,1.097,19.924,3.283
		c5.433,2.19,9.849,4.945,13.244,8.263c3.396,3.323,5.922,6.831,7.584,10.527c1.659,3.701,2.639,7.059,2.943,10.076l-25.13,5.66
		c-0.305-1.659-0.793-3.357-1.472-5.094c-0.68-1.733-1.776-3.357-3.283-4.867c-1.511-1.508-3.361-2.717-5.547-3.623
		c-2.189-0.906-4.867-1.359-8.037-1.359c-3.927,0-7.284,1.059-10.074,3.17c-2.795,2.115-4.189,4.754-4.189,7.924
		c0,2.715,0.941,4.905,2.83,6.565c1.885,1.662,4.336,2.793,7.357,3.396l15.849,3.396c11.015,2.264,19.279,6.491,24.79,12.678
		c5.509,6.191,8.264,13.357,8.264,21.507c0,4.529-0.871,8.983-2.604,13.359c-1.737,4.379-4.414,8.302-8.037,11.773
		c-3.621,3.474-8.15,6.264-13.583,8.375c-5.435,2.113-11.773,3.17-19.019,3.17c-8.454,0-15.547-1.209-21.281-3.622
		c-5.738-2.413-10.414-5.356-14.037-8.83c-3.621-3.47-6.304-7.206-8.037-11.208c-1.737-3.998-2.755-7.584-3.056-10.754
		L160.112,295.58z"/>
	<path d="M297.267,217.474c8.299,0,16.036,1.471,23.205,4.414c7.168,2.943,13.359,7.019,18.566,12.226s9.281,11.433,12.226,18.679
		c2.943,7.244,4.415,15.168,4.415,23.771c0,8.603-1.472,16.492-4.415,23.658c-2.944,7.171-7.019,13.396-12.226,18.679
		c-5.207,5.285-11.398,9.396-18.566,12.338c-7.169,2.943-14.906,4.414-23.205,4.414c-8.303,0-16.04-1.471-23.206-4.414
		c-7.171-2.943-13.357-7.054-18.564-12.338c-5.207-5.282-9.283-11.508-12.226-18.679c-2.944-7.166-4.416-15.056-4.416-23.658
		c0-8.603,1.471-16.527,4.416-23.771c2.943-7.246,7.019-13.472,12.226-18.679s11.393-9.283,18.564-12.226
		C281.227,218.945,288.964,217.474,297.267,217.474z M297.267,308.259c3.623,0,7.167-0.679,10.641-2.037
		c3.47-1.358,6.488-3.357,9.056-6c2.564-2.639,4.642-5.922,6.226-9.849c1.584-3.923,2.377-8.525,2.377-13.81
		c0-5.282-0.793-9.884-2.377-13.81c-1.584-3.923-3.661-7.206-6.226-9.849c-2.568-2.639-5.585-4.642-9.056-6
		c-3.474-1.358-7.019-2.037-10.641-2.037c-3.623,0-7.17,0.679-10.64,2.037c-3.475,1.358-6.493,3.361-9.057,6
		c-2.568,2.643-4.64,5.925-6.226,9.849c-1.584,3.926-2.377,8.528-2.377,13.81c0,5.285,0.793,9.886,2.377,13.81
		c1.586,3.927,3.658,7.209,6.226,9.849c2.564,2.643,5.582,4.642,9.057,6C290.097,307.58,293.644,308.259,297.267,308.259z"/>
	<path d="M371.34,332.257V220.869h28.752v13.584c1.507-2.717,3.471-5.129,5.886-7.246c2.414-2.111,5.094-3.848,8.039-5.207
		c2.942-1.358,6.035-2.412,9.281-3.168c3.244-0.755,6.375-1.133,9.396-1.133c7.696,0,14.412,1.586,20.149,4.754
		c5.735,3.17,10.036,7.775,12.904,13.812c4.376-6.793,9.509-11.582,15.396-14.377c5.886-2.79,12.526-4.188,19.923-4.188
		c5.13,0,10.111,0.793,14.943,2.377c4.829,1.586,9.13,4.114,12.904,7.584c3.771,3.474,6.791,7.889,9.056,13.244
		c2.264,5.36,3.396,11.738,3.396,19.131v72.221h-29.204v-66.108c0-6.035-1.55-11.054-4.642-15.056c-3.096-3.998-8.115-6-15.056-6
		c-6.491,0-11.547,2.151-15.168,6.453c-3.623,4.301-5.435,9.474-5.435,15.508v65.203h-29.885v-66.108
		c0-6.035-1.586-11.054-4.754-15.056c-3.17-3.998-8.151-6-14.943-6c-6.643,0-11.771,2.115-15.395,6.34
		c-3.621,4.227-5.434,9.434-5.434,15.621v65.203H371.34z"/>
	<path d="M664.112,300.334c-1.36,4.832-3.51,9.396-6.453,13.697c-2.942,4.302-6.528,8.037-10.752,11.208
		c-4.23,3.17-9.17,5.7-14.83,7.584c-5.66,1.886-11.888,2.83-18.679,2.83c-7.697,0-15.02-1.322-21.96-3.961
		c-6.943-2.639-13.059-6.527-18.34-11.66c-5.285-5.129-9.472-11.395-12.564-18.791c-3.095-7.394-4.642-15.769-4.642-25.13
		c0-8.905,1.507-16.98,4.529-24.224c3.016-7.246,7.053-13.394,12.112-18.451c5.053-5.056,10.902-8.979,17.544-11.773
		c6.643-2.792,13.507-4.188,20.604-4.188c17.354,0,30.864,5.132,40.525,15.394c9.657,10.267,14.491,24.376,14.491,42.337
		c0,2.115-0.079,4.114-0.229,6c-0.153,1.89-0.226,2.981-0.226,3.283h-79.691c0.146,3.622,1.019,6.982,2.602,10.074
		c1.586,3.096,3.623,5.773,6.114,8.037c2.488,2.265,5.395,4.039,8.716,5.32c3.317,1.286,6.867,1.924,10.64,1.924
		c7.093,0,12.641-1.584,16.642-4.754c3.998-3.168,6.904-7.244,8.716-12.226L664.112,300.334z M636.038,263.885
		c-0.152-2.717-0.717-5.395-1.698-8.037c-0.982-2.639-2.488-4.981-4.525-7.019c-2.04-2.037-4.608-3.696-7.7-4.98
		c-3.096-1.281-6.755-1.924-10.979-1.924c-3.928,0-7.398,0.679-10.414,2.037c-3.022,1.358-5.587,3.096-7.697,5.207
		c-2.116,2.115-3.735,4.454-4.87,7.019c-1.132,2.568-1.775,5.133-1.925,7.697H636.038z"/>
	<g>
		<path d="M301.541,441.008c-3.021-0.604-6.038-0.906-9.056-0.906c-3.926,0-7.624,0.531-11.094,1.583
			c-3.474,1.058-6.491,2.796-9.056,5.208c-2.568,2.416-4.641,5.624-6.226,9.621c-1.584,4.002-2.377,9.021-2.377,15.057v50.939
			h-30.111V411.122h29.206v16.525c1.659-3.62,3.811-6.599,6.453-8.941c2.639-2.339,5.433-4.11,8.375-5.321
			c2.944-1.205,5.887-2.037,8.83-2.488c2.943-0.455,5.622-0.681,8.037-0.681c1.206,0,2.377,0.04,3.51,0.113
			c1.131,0.079,2.299,0.192,3.508,0.338V441.008z"/>
		<path d="M311.152,370.862c0-6.378,2.188-11.758,6.563-16.133c4.375-4.374,9.659-6.562,15.859-6.562
			c6.379,0,11.71,2.188,15.996,6.562c4.282,4.375,6.425,9.755,6.425,16.133c0,6.014-2.144,11.209-6.425,15.584
			c-4.286,4.376-9.616,6.562-15.996,6.562c-6.201,0-11.484-2.186-15.859-6.562C313.34,382.072,311.152,376.876,311.152,370.862z
			 M318.632,522.51V411.122h30.111V522.51H318.632z"/>
		<path d="M371.34,582.526V411.122h29.206v13.582c2.564-4.376,6.791-8.147,12.679-11.319c5.885-3.169,13.053-4.754,21.507-4.754
			c8.151,0,15.396,1.473,21.735,4.415c6.339,2.942,11.733,7.017,16.188,12.226c4.45,5.205,7.81,11.32,10.074,18.337
			c2.264,7.021,3.396,14.681,3.396,22.981c0,8.454-1.244,16.264-3.736,23.433c-2.489,7.17-6.038,13.357-10.64,18.562
			c-4.606,5.209-10.151,9.283-16.64,12.227c-6.491,2.942-13.662,4.415-21.509,4.415c-7.697,0-14.303-1.323-19.81-3.961
			c-5.511-2.641-9.621-5.849-12.339-9.625v70.886H371.34z M456.467,466.816c0-9.964-2.682-17.66-8.038-23.096
			c-5.358-5.431-11.886-8.147-19.583-8.147c-3.926,0-7.549,0.717-10.867,2.149c-3.32,1.438-6.266,3.475-8.83,6.115
			c-2.568,2.641-4.566,5.885-5.998,9.733c-1.437,3.849-2.152,8.265-2.152,13.245c0,4.979,0.715,9.396,2.152,13.243
			c1.432,3.849,3.43,7.134,5.998,9.848c2.564,2.717,5.51,4.794,8.83,6.227c3.318,1.437,6.941,2.15,10.867,2.15
			c7.697,0,14.225-2.751,19.583-8.262C453.785,484.513,456.467,476.778,456.467,466.816z"/>
		<path d="M521.59,485.833c0.3,4.379,2.111,8.304,5.433,11.774c3.317,3.474,8.299,5.205,14.943,5.205
			c4.978,0,8.67-1.092,11.086-3.281c2.413-2.187,3.621-4.79,3.621-7.813c0-2.564-0.902-4.787-2.714-6.678
			c-1.81-1.885-4.907-3.281-9.278-4.188l-14.715-3.396c-10.867-2.412-18.79-6.6-23.771-12.564
			c-4.981-5.962-7.472-12.866-7.472-20.716c0-4.979,1.055-9.697,3.17-14.15c2.112-4.448,5.017-8.297,8.716-11.545
			c3.697-3.244,8.073-5.85,13.131-7.813c5.057-1.957,10.603-2.942,16.641-2.942c7.843,0,14.481,1.098,19.916,3.284
			c5.435,2.19,9.847,4.943,13.244,8.265c3.397,3.32,5.919,6.831,7.584,10.527c1.659,3.699,2.641,7.057,2.946,10.072l-25.135,5.66
			c-0.306-1.659-0.79-3.354-1.474-5.093c-0.677-1.731-1.771-3.358-3.277-4.867c-1.512-1.507-3.362-2.718-5.544-3.623
			c-2.188-0.905-4.865-1.356-8.032-1.356c-3.928,0-7.285,1.055-10.076,3.168c-2.795,2.117-4.188,4.754-4.188,7.923
			c0,2.717,0.94,4.907,2.83,6.565c1.885,1.662,4.337,2.797,7.357,3.397l15.844,3.394c11.013,2.266,19.273,6.493,24.788,12.681
			c5.507,6.19,8.261,13.356,8.261,21.508c0,4.529-0.869,8.981-2.602,13.357c-1.738,4.379-4.412,8.301-8.035,11.771
			c-3.623,3.474-8.154,6.267-13.589,8.377c-5.428,2.113-11.765,3.172-19.007,3.172c-8.454,0-15.547-1.211-21.281-3.623
			c-5.738-2.412-10.415-5.358-14.037-8.832c-3.622-3.47-6.304-7.206-8.037-11.203c-1.737-3.998-2.756-7.588-3.056-10.756
			L521.59,485.833z"/>
		<path d="M177.326,367.644c-4.202,0.033-13.36,6.795-13.36,23.038v2.78c0,4.979-2.328,9.827-4.189,12.567
			c-5.062,7.451-6.333,7.688-25.475,25.486v20.107l26.946-13.787v51.846c0,10.868,3.17,19.321,9.51,25.356
			c6.338,6.038,14.941,9.058,25.808,9.058c4.376,0,7.959-0.306,10.754-0.906c2.792-0.606,4.867-1.207,6.226-1.812v-24.905
			c-0.756,0.305-2.037,0.53-3.849,0.68c-1.812,0.153-3.623,0.226-5.433,0.226c-4.379,0-7.662-0.938-9.849-2.83
			c-2.189-1.884-3.283-5.241-3.283-10.072v-46.64h22.413v-26.714h-22.464v-23.881c-1.184-13.752-9.311-19.568-13.201-19.598"/>
	</g>
</g>
</svg>
